# xmcd CD database file
#
# Track frame offsets:
#	150
#	21560
#	34357
#	52622
#	69925
#	86642
#	109270
#	127617
#	147972
#	162285
#	176565
#	196015
#	219747
#	249980
#	279075
#
# Disc length: 4440 seconds
#
# Revision: 0
# Processed by: cddbd v1.5PL3 Copyright (c) Steve Scherf et al.
# Submitted via: CDex 1.50
#
DISCID=c711560f
DTITLE=Thalia - EnExtasis
DYEAR=1900
DGENRE=Pop
TTITLE0=ピエル・モレナ
TTITLE1=フアナ
TTITLE2=あなたに愛されたい
TTITLE3=アマンドテ
TTITLE4=わたしを連れてって
TTITLE5=わたしを誘惑して
TTITLE6=神に感謝して
TTITLE7=涙
TTITLE8=とてもあなたが好き
TTITLE9=ドアは開いているわ
TTITLE10=ファンタシア
TTITLE11=あなたはいない
TTITLE12=ピエル・モレナ (リミックス)
TTITLE13=街のマリア
TTITLE14=Data Track
EXTD=
EXTT0=
EXTT1=
EXTT2=
EXTT3=
EXTT4=
EXTT5=
EXTT6=
EXTT7=
EXTT8=
EXTT9=
EXTT10=
EXTT11=
EXTT12=
EXTT13=
EXTT14=
PLAYORDER=
